<?xml version="1.0" standalone="no"?><!DOCTYPE svg PUBLIC "-//W3C//DTD SVG 1.1//EN" "http://www.w3.org/Graphics/SVG/1.1/DTD/svg11.dtd"><svg t="1560133413886" class="icon" style="" viewBox="0 0 1024 1024" version="1.1" xmlns="http://www.w3.org/2000/svg" p-id="1515" xmlns:xlink="http://www.w3.org/1999/xlink" width="200" height="200"><defs><style type="text/css"></style></defs><path d="M446.271 573.438c-31.7-30.116-59.579-64.53-81.91-100.652 67.779-30.47 112.128-93.454 112.128-169.787 0-108.402-87.534-196.332-195.578-196.332-110.851 0-195.578 82.076-195.578 196.332 0 158.244 82.564 328.553 200.616 439.654 100.018 94.128 258.99 161.742 413.46 174.576 0.84 0.07 1.683 0.104 2.526 0.104h41.154c16.852 0 30.514-13.664 30.514-30.52s-13.662-30.52-30.514-30.52h-39.873c-140.67-11.98-286.02-73.936-375.446-158.096C221.353 598.047 146.362 443.358 146.362 303c0-80.1 56.974-135.291 134.55-135.291 74.279 0 134.548 60.542 134.548 135.29 0 60.308-40.9 107.988-103.016 123.351-19.15 4.736-28.842 26.127-19.778 43.651 27.574 53.316 66.037 104.434 111.576 147.697 51.251 48.69 109.938 86.106 172.054 108.159 18.018 6.396 37.412-5.166 40.357-24.06 10.46-67.088 61.62-114.033 126.436-114.033 74.28 0 134.549 60.542 134.549 135.291 0 25.575-7.04 50.03-20.143 71.247-8.856 14.341-4.412 33.147 9.926 42.005 14.338 8.858 33.141 4.414 41.997-9.927 19.016-30.792 29.249-66.34 29.249-103.325 0-108.402-87.534-196.332-195.578-196.332-83.069 0-151.21 52.387-177.622 128.862-42.361-19.55-82.77-47.54-119.196-82.146z" fill="#000000" p-id="1516"></path></svg>